<?xml version="1.0" encoding="UTF-8" standalone="no"?>
<!DOCTYPE svg PUBLIC "-//W3C//DTD SVG 1.1//EN"
 "http://www.w3.org/Graphics/SVG/1.1/DTD/svg11.dtd">
<!-- Generated by graphviz version 2.47.1 (20210417.1919)
 -->
<!-- Title: pipeline_dag Pages: 1 -->
<svg width="191pt" height="189pt"
 viewBox="0.00 0.00 191.05 189.20" xmlns="http://www.w3.org/2000/svg" xmlns:xlink="http://www.w3.org/1999/xlink">
<g id="graph0" class="graph" transform="scale(1 1) rotate(0) translate(4 185.2)">
<title>pipeline_dag</title>
<polygon fill="white" stroke="transparent" points="-4,4 -4,-185.2 187.05,-185.2 187.05,4 -4,4"/>
<!-- p0 -->
<g id="node1" class="node">
<title>p0</title>
<ellipse fill="black" stroke="black" cx="50.05" cy="-177.6" rx="3.6" ry="3.6"/>
</g>
<!-- p1 -->
<g id="node2" class="node">
<title>p1</title>
<ellipse fill="none" stroke="black" cx="50.05" cy="-105" rx="50.09" ry="18"/>
<text text-anchor="middle" x="50.05" y="-101.3" font-family="Times,serif" font-size="14.00">checkInput</text>
</g>
<!-- p0&#45;&gt;p1 -->
<g id="edge1" class="edge">
<title>p0&#45;&gt;p1</title>
<path fill="none" stroke="black" d="M50.05,-173.92C50.05,-167.25 50.05,-149.3 50.05,-133.53"/>
<polygon fill="black" stroke="black" points="53.55,-133.13 50.05,-123.13 46.55,-133.13 53.55,-133.13"/>
<text text-anchor="middle" x="74.55" y="-144.8" font-family="Times,serif" font-size="14.00">inputFile</text>
</g>
<!-- p3 -->
<g id="node3" class="node">
<title>p3</title>
<ellipse fill="none" stroke="black" cx="99.05" cy="-18" rx="54.69" ry="18"/>
<text text-anchor="middle" x="99.05" y="-14.3" font-family="Times,serif" font-size="14.00">runDiffUTR</text>
</g>
<!-- p1&#45;&gt;p3 -->
<g id="edge2" class="edge">
<title>p1&#45;&gt;p3</title>
<path fill="none" stroke="black" d="M46.74,-86.86C45.65,-76.75 45.83,-64.01 51.05,-54 53.82,-48.67 57.83,-43.95 62.35,-39.84"/>
<polygon fill="black" stroke="black" points="64.68,-42.46 70.33,-33.5 60.33,-36.98 64.68,-42.46"/>
<text text-anchor="middle" x="89.05" y="-57.8" font-family="Times,serif" font-size="14.00">ch_input_tmp</text>
</g>
<!-- p2 -->
<g id="node4" class="node">
<title>p2</title>
<ellipse fill="black" stroke="black" cx="149.05" cy="-105" rx="3.6" ry="3.6"/>
</g>
<!-- p2&#45;&gt;p3 -->
<g id="edge3" class="edge">
<title>p2&#45;&gt;p3</title>
<path fill="none" stroke="black" d="M148.09,-101.17C145.4,-93.33 137.27,-70.87 127.05,-54 124.93,-50.51 122.5,-46.97 119.98,-43.56"/>
<polygon fill="black" stroke="black" points="122.56,-41.17 113.65,-35.44 117.04,-45.48 122.56,-41.17"/>
<text text-anchor="middle" x="158.55" y="-57.8" font-family="Times,serif" font-size="14.00">inputFile</text>
</g>
</g>
</svg>
